<svg id="Capa_1" enable-background="new 0 0 511.999 511.999" height="512" viewBox="0 0 511.999 511.999" width="512" xmlns="http://www.w3.org/2000/svg"><g><g><g id="XMLID_151_"><g id="XMLID_152_"><g id="XMLID_153_"><g id="XMLID_154_"><g id="XMLID_155_"><g id="XMLID_156_"><g id="XMLID_157_"><g id="XMLID_158_"><g id="XMLID_159_"><g id="XMLID_160_"><g id="XMLID_161_"><g id="XMLID_162_"><g id="XMLID_163_"><g id="XMLID_164_"><path id="XMLID_165_" d="m.121 248.05c4.2-137.707 117.153-248.05 255.878-248.05 141.802 0 256 114.198 256 256 0 138.725-110.343 251.678-248.049 255.879-147.039 4.485-268.315-116.79-263.829-263.829z" fill="#3d3d3d"/></g></g></g></g></g></g></g></g></g></g></g></g></g></g></g><path d="m492.539 157.646-69.093-69.093-299.095 350.827 63.248 63.248c24.228 6.767 49.867 10.059 76.351 9.251 137.706-4.201 248.049-117.154 248.049-255.879.001-34.887-6.925-68.098-19.46-98.354z" fill="#212121"/><g><path d="m423.445 88.553h.001-.001l-107.035 4.517-121.662 167.36 56.82 56.82 167.36-121.662z" fill="#fff"/><path d="m418.924 195.59-162.896 118.419-4.462 3.246-28.44-28.44 200.26-200.26h.057z" fill="#cecece"/><path d="m122.06 293.245h84.71v108.677h-84.71z" fill="#ec4e46" transform="matrix(.707 .707 -.707 .707 293.935 -14.454)"/><path d="m125.038 341.345h108.68v42.4h-108.68z" fill="#c41c1c" transform="matrix(.707 -.707 .707 .707 -203.82 233.026)"/><path d="m168.989 423.85-30.08 30.09-80.85-80.85 30.09-30.08 40.39 40.39z" fill="#f5b53f"/><path d="m168.989 423.85-30.08 30.09-40.44-40.44-.01-.02 30.08-30.08z" fill="#d87100"/><path d="m223 345.084-56.085-56.085c-11.693-11.693-11.693-30.651 0-42.343l10.878-10.878 98.429 98.428-10.878 10.878c-11.694 11.692-30.652 11.692-42.344 0z" fill="#f5b53f"/><path d="m276.223 334.204-10.882 10.882c-11.045 11.045-28.581 11.653-40.347 1.824-.686-.573-1.351-1.181-1.994-1.824l-28.072-28.072 32.053-32.053z" fill="#d87100"/></g></g></svg>