<svg id="Capa_1" enable-background="new 0 0 512.003 512.003" height="512" viewBox="0 0 512.003 512.003" width="512" xmlns="http://www.w3.org/2000/svg"><g><path d="m374.511 354.24-176.16 154c-11.27 9.86-28.48-1.18-24.26-15.53l29.5-100.24h-56.23c-11.11 0-18.47-11.77-13.37-21.81l38.25-75.07h160.41l-10.42 32.36h42.41c13.85 0 20.26 17.22 9.87 26.29z" fill="#fedd33"/><path d="m374.511 354.24-118.51 103.6v-162.25h76.65c-4.15 12.889-6.248 19.405-10.42 32.36h42.41c13.85 0 20.26 17.22 9.87 26.29z" fill="#fbbd43"/><path d="m459.147 191.981c19.417-57.801-31.128-118.324-93.918-104.652-11.176-49.668-55.795-87.329-109.478-87.329-53.418 0-98.096 37.063-109.19 87.385-62.455-13.857-113.834 46.43-94.17 104.702-24.198 5.78-42.391 26.826-42.391 53.483 0 30.338 24.682 55.02 55.02 55.02h381.96c30.338 0 55.02-24.682 55.02-55.02.001-26.953-18.569-48.008-42.853-53.589z" fill="#ffbda9"/><path d="m502.001 245.57c0 30.34-24.68 55.02-55.02 55.02h-190.98v-300.59c53.57.12 98.07 37.74 109.23 87.33 62.79-13.67 113.33 46.85 93.92 104.65 24.28 5.58 42.85 26.64 42.85 53.59z" fill="#f9a58d"/><path d="m446.981 270.59h-104.21c-12.209-.179-23.674-5.023-32.307-13.666-17.696-17.717-17.682-46.376.036-64.074 14.411-14.396 35.792-17.108 53.05-8.103 7.344 3.832 16.405.984 20.238-6.36 3.832-7.345.985-16.405-6.36-20.237-28.819-15.03-64.286-10.339-88.129 13.476-27.16 27.13-29.181 69.551-6.638 98.965h-52.819c22.53-29.395 20.537-71.82-6.638-98.965-23.836-23.808-59.301-28.511-88.129-13.476-7.345 3.832-10.192 12.893-6.36 20.237 3.833 7.345 12.893 10.193 20.238 6.36 17.27-9.012 38.645-6.285 53.05 8.103 28.617 28.586 8.156 77.147-32.271 77.74h-104.711c-13.796 0-25.02-11.224-25.02-25.02 0-16.636 15.121-27.076 29.304-24.676 24.271 27.724 68.539 36.28 103.592 16.237 7.191-4.112 9.688-13.275 5.576-20.467s-13.273-9.688-20.467-5.576c-41.983 24.004-92.527-15.771-77.023-61.209 10.08-29.542 43.85-42.839 71.185-28.848 9.704 4.968 21.368-1.778 21.822-12.732 1.815-43.905 37.73-78.299 81.761-78.299 44.076 0 80.145 34.338 82.115 78.174.488 10.854 12.03 17.614 21.733 12.723 27.07-13.635 60.846-.752 70.958 29.084 15.363 45.332-35.013 85.151-77.061 61.108-7.191-4.111-16.356-1.616-20.467 5.576-4.112 7.191-1.616 16.354 5.576 20.467 34.224 19.57 76.896 12.748 103.319-16.09 14.325-2.907 30.077 7.488 30.077 24.528 0 13.796-11.224 25.02-25.02 25.02z" fill="#ffddce"/><path d="m472.001 245.57c0 13.8-11.22 25.02-25.02 25.02h-104.21c-40.435-.596-60.881-49.161-32.27-77.74 14.41-14.4 35.79-17.11 53.05-8.1 7.34 3.83 16.4.98 20.24-6.36 3.83-7.35.98-16.41-6.36-20.24-28.82-15.03-64.29-10.34-88.13 13.47-27.16 27.13-29.18 69.56-6.64 98.97h-26.66v-240.59c43.97.13 79.9 34.42 81.87 78.17.48 10.86 12.03 17.62 21.73 12.73 27.07-13.64 60.84-.76 70.96 29.08 15.36 45.33-35.02 85.15-77.06 61.11-7.2-4.11-16.36-1.62-20.47 5.58-4.11 7.19-1.62 16.35 5.57 20.46 34.23 19.57 76.9 12.75 103.32-16.09 14.33-2.91 30.08 7.49 30.08 24.53z" fill="#ffccbd"/></g></svg>