<svg id="Layer_1" enable-background="new 0 0 512 512" height="512" viewBox="0 0 512 512" width="512" xmlns="http://www.w3.org/2000/svg"><g><g fill="#a54628"><path d="m63.2 512c-8.284 0-15-6.716-15-15v-80.333c0-3.978 1.581-7.793 4.394-10.606l48.2-48.2c5.857-5.858 15.355-5.858 21.213 0s5.858 15.355 0 21.213l-43.807 43.806v74.12c0 8.284-6.716 15-15 15z"/><path d="m148.994 202.34-48.2-48.2c-2.813-2.813-4.394-6.628-4.394-10.606v-48.2c0-8.284 6.716-15 15-15s15 6.716 15 15v41.986l43.807 43.807c5.858 5.858 5.858 15.355 0 21.213-5.859 5.859-15.357 5.857-21.213 0z"/><path d="m100.793 298.74-53.66-53.66-21.527 21.526c-5.857 5.858-15.355 5.858-21.213 0s-5.858-15.355 0-21.213l32.133-32.133c5.857-5.858 15.355-5.858 21.213 0l64.267 64.267c5.858 5.858 5.858 15.355 0 21.213-5.858 5.859-15.357 5.857-21.213 0z"/></g><path d="m341.793 202.34c-5.858-5.858-5.858-15.355 0-21.213l43.807-43.807v-41.987c0-8.284 6.716-15 15-15s15 6.716 15 15v48.2c0 3.978-1.581 7.793-4.394 10.606l-48.2 48.2c-5.858 5.86-15.356 5.858-21.213.001z" fill="#78281e"/><path d="m448.8 512c-8.284 0-15-6.716-15-15v-74.12l-43.806-43.807c-5.858-5.858-5.858-15.355 0-21.213 5.857-5.858 15.355-5.858 21.213 0l48.2 48.2c2.813 2.813 4.394 6.628 4.394 10.606v80.334c-.001 8.284-6.717 15-15.001 15z" fill="#78281e"/><path d="m389.994 298.74c-5.858-5.858-5.858-15.355 0-21.213l64.267-64.267c5.857-5.858 15.355-5.858 21.213 0l32.133 32.133c5.858 5.858 5.858 15.355 0 21.213-5.857 5.858-15.355 5.858-21.213 0l-21.527-21.526-53.66 53.66c-5.859 5.859-15.357 5.857-21.213 0z" fill="#78281e"/><g><path d="m256 94.267c-8.284 0-15-6.716-15-15v-16.083c0-18.298-14.886-33.184-33.184-33.184-8.284 0-15.008-6.716-15.008-15s6.708-15 14.992-15c34.856 0 63.2 28.344 63.2 63.184v16.083c0 8.284-6.716 15-15 15z" fill="#a54628"/></g><g><path d="m256 94.267c-8.284 0-15-6.716-15-15v-16.083c0-34.84 28.344-63.184 63.184-63.184 8.284 0 15.008 6.716 15.008 15s-6.708 15-14.992 15c-18.314 0-33.2 14.886-33.2 33.184v16.083c0 8.284-6.716 15-15 15z" fill="#78281e"/></g><path d="m304.2 158.533h-96.4c-8.284 0-15-6.716-15-15v-16.066c0-34.976 28.305-63.2 63.2-63.2 34.906 0 63.2 28.235 63.2 63.2v16.066c0 8.284-6.716 15-15 15z" fill="#d26432"/><path d="m319.2 143.533v-16.066c0-34.966-28.294-63.2-63.2-63.2v94.267h48.2c8.284-.001 15-6.717 15-15.001z" fill="#a54628"/><path d="m352.4 254.933h-192.8c-8.284 0-15-6.716-15-15v-48.2c0-34.849 28.351-63.2 63.2-63.2h96.4c34.849 0 63.2 28.352 63.2 63.2v48.2c0 8.284-6.716 15-15 15z" fill="#ff823c"/><path d="m367.4 239.933v-48.2c0-34.849-28.351-63.2-63.2-63.2h-48.2v126.4h96.4c8.284 0 15-6.716 15-15z" fill="#d26432"/><path d="m256 512c-88.004 0-159.6-71.596-159.6-159.6v-64.267c0-34.976 28.305-63.2 63.2-63.2h192.8c34.906 0 63.2 28.235 63.2 63.2v64.267c0 88.004-71.596 159.6-159.6 159.6z" fill="#d26432"/><path d="m415.6 352.4v-64.267c0-34.966-28.294-63.2-63.2-63.2h-96.4v287.067c88.004 0 159.6-71.596 159.6-159.6z" fill="#a54628"/></g></svg>